<?xml version="1.0" encoding="utf-8"?>
<!-- Generator: Adobe Adobe Illustrator 29.2.0, SVG Export Plug-In . SVG Version: 6.00 Build 0)  -->
<svg version="1.1" id="Layer_1" xmlns="http://www.w3.org/2000/svg" xmlns:xlink="http://www.w3.org/1999/xlink" x="0px" y="0px"
	 width="240px" height="50px" viewBox="0 0 240 50" style="enable-background:new 0 0 240 50;" xml:space="preserve">
<style type="text/css">
	.st0{fill:#62BCF8;}
	.st1{fill:#060606;}
	.st2{fill:#080808;}
	.st3{fill:#78C1EF;}
</style>
<g>
	<g>
		<g>
			<path class="st0" d="M61.67,29.7c0,0.15-0.01,0.3-0.15,0.59c-0.28,0.42-0.45,0.69-0.56,0.97c-0.81,1.96-1.56,3.94-2.44,5.86
				c-0.58,1.28-1.34,2.48-2.02,3.71c0,0,0,0-0.12,0c-0.91,0.87-1.71,1.74-2.5,2.61c0,0,0,0.01-0.12,0c-0.91,0.65-1.71,1.3-2.5,1.95
				c0,0,0.01,0.01-0.11,0.01c-0.37,0.21-0.62,0.41-0.87,0.62c0,0-0.11,0.06-0.3,0.06c-1.95,0.68-3.69,1.38-5.46,2.03
				c-1.12,0.41-2.26,0.73-3.39,1.1c-0.25,0.03-0.5,0.06-0.97-0.01c-1.35-0.04-2.47,0.01-3.59,0.07c-0.25,0-0.5,0.01-0.9-0.13
				c-3.61-1.11-7.15-1.83-10.11-4.07c-0.53-0.4-1.2-0.62-1.81-0.92c0,0,0.01-0.05-0.01-0.13c-1.2-1.41-2.41-2.71-3.56-4.06
				c-1.02-1.21-1.97-2.48-2.95-3.72c0,0-0.05-0.08-0.02-0.26c-0.1-0.64-0.24-1.1-0.36-1.57c-0.63-2.45-1.48-4.88-1.82-7.37
				c-0.76-5.7,1.14-10.86,4.27-15.44c3.64-5.33,8.48-9.15,15.28-9.73c0.36-0.03,0.68-0.54,1.02-0.82c0.14-0.03,0.29-0.05,0.65,0.01
				c2.09,0.09,3.96,0.09,5.98,0.09c-0.29,0.42-0.44,0.64-0.58,0.84c1.39,0.29,2.69,0.63,4.01,0.8c0.84,0.11,1.72-0.05,2.71-0.09
				c-0.42,0.98,0.72,0.91,1.48,1.32c0.64,0.34,1.14,0.94,1.7,1.43c-0.07,0.08-0.14,0.17-0.22,0.25c-1.52-0.34-3.04-0.67-4.56-1.01
				c-0.04,0.12-0.07,0.24-0.11,0.36c1.65,0.8,3.3,1.6,4.95,2.4c0,0-0.01,0.01,0.02,0.08c0.13,0.13,0.22,0.19,0.31,0.25
				c0,0-0.02,0-0.04,0.13c-0.77,0.24-1.54,0.53-2.27,0.45c-1.56-0.16-3.1-0.61-4.66-0.74c-2.73-0.24-5.47-0.37-8.21-0.43
				c-0.5-0.01-1.01,0.52-1.52,0.79c-0.14,0.04-0.29,0.07-0.62,0.03c-2.56,0.3-4.71,1.08-6.2,3.11c0,0,0-0.04-0.1-0.03
				c-0.26,0.22-0.42,0.42-0.58,0.63c0,0,0,0-0.08,0.03c-0.17,0.1-0.23,0.18-0.25,0.29c0,0,0,0-0.11,0.02
				c-0.26,0.22-0.4,0.43-0.55,0.64c-0.03,0.11-0.09,0.2-0.37,0.31c-2.96,1.95-3.99,5.01-4.76,7.95c-0.95,3.65-0.67,7.41,0.9,10.96
				c1.14,2.57,2.14,5.22,4.86,6.63c0,0,0.02-0.01,0.03,0.11c1.81,3,9.2,5.51,13.03,4.64c0.56-0.13,1.16-0.11,1.95-0.18
				c-0.35,0.47-0.5,0.66-0.81,1.08c0.57-0.17,1.16-0.21,1.2-0.38c0.3-1.2,1.27-1.21,2.18-1.54c0.95-0.34,1.78-1,2.67-1.52
				c0,0,0.01,0.06,0.12,0.04c1.68-0.3,2.76-1.24,3.51-2.6c0,0,0.01,0.01,0.12,0c0.45-0.46,0.8-0.91,1.15-1.35
				c0,0,0.04,0.02,0.13-0.01c0.24-0.11,0.44-0.15,0.52-0.27c3.35-5.04,4.9-10.36,2.73-16.36c-0.34-0.94-0.37-2.51,0.19-3.12
				c0.78-0.85,2.24-1.33,3.45-0.16c0.09,0.13,0.19,0.26,0.27,0.61c0.6,1.81,1.21,3.4,1.82,4.99c0.03,0.14,0.05,0.29-0.02,0.65
				C61.56,25.49,61.62,27.59,61.67,29.7L61.67,29.7z M45.39,4.59c0.05,0.08,0.08,0.21,0.15,0.23c0.06,0.02,0.16-0.08,0.24-0.12
				C45.7,4.66,45.62,4.61,45.39,4.59z"/>
			<path class="st1" d="M116.67,26.19c-0.78-2.33-1.53-4.53-2.37-6.98c1.71,0,3.27-0.08,4.82,0.05c0.38,0.03,0.88,0.69,1.03,1.15
				c0.96,3,1.84,6.03,2.75,9.04c0.17,0.55,0.37,1.1,0.73,2.14c0.62-1.98,1.09-3.49,1.57-5c0.46-1.45,0.93-2.9,1.39-4.35
				c0.99-3.09,0.99-3.05,4.3-3.07c1.07-0.01,1.52,0.38,1.83,1.35c1.02,3.21,2.12,6.39,3.2,9.58c0.14,0.4,0.3,0.8,0.58,1.56
				c0.95-3.4,1.82-6.47,2.67-9.53c0.81-2.93,0.8-2.93,3.8-2.94c0.7,0,1.4,0,2.37,0c-0.42,1.32-0.78,2.49-1.16,3.65
				c-1.56,4.69-3.15,9.37-4.66,14.08c-0.36,1.11-0.92,1.5-2.11,1.48c-3.36-0.07-3.35-0.02-4.41-3.18c-0.96-2.86-1.96-5.7-3.29-8.53
				c-1.13,3.27-2.33,6.52-3.37,9.83c-0.44,1.4-1.04,2.03-2.61,1.94c-3.38-0.18-2.56,0.6-3.76-2.74
				C118.83,32.59,117.78,29.45,116.67,26.19z"/>
			<path class="st1" d="M228.23,39.34c-1.12,2.98-2.35,5.75-5.73,6.5c-1.25,0.28-2.58,0.21-3.88,0.21c-0.82,0-1.32-0.35-1.08-1.35
				c0.24-1,0.34-2.03,0.5-3c0.19-0.08,0.3-0.16,0.39-0.15c3.96,0.46,5.56-1.62,4.07-5.34c-2.01-5.05-4.04-10.09-6.06-15.13
				c-0.21-0.54-0.36-1.1-0.6-1.84c1.72,0,3.25-0.09,4.74,0.06c0.44,0.04,0.98,0.72,1.17,1.22c1.38,3.71,2.69,7.44,4.19,11.63
				c0.42-1.2,0.69-1.96,0.95-2.73c1-2.99,2.02-5.97,2.96-8.98c0.29-0.93,0.74-1.31,1.74-1.24c1.29,0.09,2.58,0.02,4.18,0.02
				C233.21,26.05,230.74,32.64,228.23,39.34z"/>
			<path class="st1" d="M100.38,38.48c-6.21-1.79-9.19-7.05-7.38-12.85c1.62-5.18,6.86-7.83,12.76-6.44
				c5.28,1.24,8.2,5.88,7.28,11.56c-0.8,4.96-5.51,8.4-10.91,7.95C101.59,38.66,101.06,38.57,100.38,38.48L100.38,38.48z
				 M105.71,33.38c0.37-0.31,0.8-0.58,1.11-0.95c1.54-1.8,1.63-5.08,0.22-7.03c-1.26-1.74-3.93-2.51-6.03-1.74
				c-2.23,0.82-3.54,3.17-3.26,5.81C98.17,33.38,101.61,35.17,105.71,33.38z"/>
			<path class="st1" d="M149.53,22.05c3.59-3.54,9.48-4.23,13.62-1.67c3.78,2.34,5.49,7.31,3.95,11.76
				c-1.4,4.03-4.41,6.09-8.57,6.45c-4.33,0.38-8.08-0.84-10.22-4.88C146.19,29.71,146.58,25.75,149.53,22.05L149.53,22.05z
				 M159.55,33.64c2.86-1.73,3.75-5.12,2.07-7.88c-1.42-2.32-4.65-3.06-7.04-1.61c-2.23,1.35-3.04,4.61-1.8,7.27
				C153.9,33.8,156.33,34.66,159.55,33.64z"/>
			<path class="st1" d="M170.69,26.54c1.52-5.45,5.68-8.17,11.45-7.6c4.27,0.42,7.76,3.54,8.11,7.46c-1.56,0-3.12,0.04-4.66-0.04
				c-0.3-0.02-0.64-0.49-0.87-0.81c-1.27-1.8-3.31-2.58-5.43-2.04c-1.94,0.49-3.32,2.23-3.52,4.42c-0.4,4.4,2.74,7.31,6.53,5.95
				c0.87-0.31,1.8-0.96,2.26-1.73c0.6-0.98,1.27-1.15,2.26-1.09c1.08,0.06,2.17,0.01,3.5,0.01c-0.12,0.61-0.16,1.17-0.35,1.68
				c-1.6,4.33-5.83,6.5-11.2,5.79c-4.42-0.59-7.81-4.05-8.17-8.46C170.5,28.96,170.63,27.81,170.69,26.54z"/>
			<path class="st2" d="M67.96,19.55c1.2-0.2,2.33-0.27,3.61-0.36c-0.03-3.15-0.37-6.45,2.9-8.43c1.91-1.15,4.73-1.26,7.34-0.25
				c-0.04,0.66-0.08,1.35-0.14,2.04c-0.06,0.63-0.14,1.26-0.21,1.89c-4.42-0.54-5.18,0.23-4.78,4.82c1.43,0,2.88,0,4.45,0
				c0,1.48,0,2.81,0,4.35c-1.41,0-2.85,0-4.43,0c0,4.97,0,9.73,0,14.59c-1.75,0-3.37,0-5.11,0c0-4.79,0-9.56,0-14.5
				c-1.28,0-2.44,0-3.71,0C67.88,22.24,67.88,20.96,67.96,19.55z"/>
			<path class="st2" d="M206.71,37.08c-1.49-1.66-1.7-3.6-1.73-5.58c-0.03-2.54-0.01-5.09-0.01-7.38c-1.13-1.11-3.57,0.97-3.52-1.89
				c0.02-0.97-0.04-2.37,0.52-2.78c0.67-0.49,1.96-0.11,3.15-0.11c0-1.67,0.05-3.13-0.02-4.58c-0.05-1.08,0.39-1.45,1.43-1.4
				c1.08,0.06,2.16,0.01,3.43,0.01c0,1.98,0,3.87,0,5.87c1.64,0,3.09,0,4.65,0c0,1.5,0,2.88,0,4.4c-1.48,0-2.93,0-4.47,0
				c0,3.01-0.07,5.87,0.04,8.72c0.05,1.22,1.04,1.73,2.2,1.71c0.69-0.01,1.38-0.13,2.21-0.22c0.11,1.21,0.3,2.33,0.27,3.44
				c-0.01,0.35-0.55,0.91-0.93,0.99C211.43,38.86,208.97,38.83,206.71,37.08z"/>
			<path class="st2" d="M89.07,22.19c0,5.43,0,10.69,0,16.03c-1.81,0-3.42,0-5.1,0c0-9.35,0-18.63,0-28.01c1.64,0,3.2,0,5.1,0
				C89.07,14.15,89.07,18.09,89.07,22.19z"/>
			<path class="st1" d="M193.86,28.41c0-3.08,0-6,0-9.02c1.79,0,3.39,0,5.13,0c0,6.25,0,12.52,0,18.86c-1.69,0-3.36,0-5.13,0
				C193.86,34.96,193.86,31.77,193.86,28.41z"/>
			<path class="st0" d="M44.86,14.48c0.93-0.8,1.82-0.78,2.55,0c0.76,0.82,0.56,1.67-0.23,2.44c-0.46,0.45-0.84,0.99-1.3,1.45
				c-3.93,3.99-7.85,7.98-11.8,11.94c-0.49,0.49-1.08,0.99-1.72,1.21c-0.62,0.21-1.36,0.05-2.05,0.06c0.08-0.74-0.12-1.74,0.29-2.18
				C35.27,24.41,40.03,19.5,44.86,14.48z"/>
			<path class="st0" d="M39.46,30.01c1.93-2.14,3.78-4.19,5.64-6.25c0.22-0.24,0.43-0.64,0.68-0.67c0.71-0.1,1.56-0.29,2.15-0.01
				c0.88,0.41,0.92,1.34,0.27,2.07c-2.62,2.89-5.26,5.75-7.94,8.6c-0.32,0.34-0.83,0.61-1.28,0.67c-0.6,0.08-1.23-0.09-1.85-0.16
				c0.09-0.59,0.03-1.29,0.32-1.76C37.98,31.63,38.73,30.89,39.46,30.01z"/>
			<path class="st2" d="M195.87,16.59c-2.05-0.65-2.82-1.69-2.55-3.26c0.28-1.59,1.62-2.61,3.28-2.5c1.63,0.11,2.81,1.2,2.92,2.73
				C199.67,15.4,198.37,16.53,195.87,16.59z"/>
			<path class="st3" d="M35.45,1.03c-0.21,0.31-0.53,0.82-0.89,0.85c-6.8,0.58-11.64,4.4-15.28,9.73
				c-3.12,4.58-5.03,9.74-4.27,15.44c0.33,2.49,1.19,4.92,1.82,7.37c0.12,0.47,0.26,0.93,0.37,1.52c-0.95-2.6-2.4-5.28-2.72-8.09
				C13.08,15.47,21.63,2.77,35.45,1.03z"/>
			<path class="st3" d="M51.61,7.35c-1.66-0.68-3.31-1.48-4.96-2.28c0.04-0.12,0.07-0.24,0.11-0.36c1.52,0.34,3.04,0.67,4.56,1.01
				c0.07-0.08,0.14-0.17,0.22-0.25c-0.56-0.49-1.06-1.09-1.7-1.43c-0.76-0.41-1.91-0.34-1.48-1.32c-0.99,0.04-1.87,0.2-2.71,0.09
				c-1.32-0.17-2.62-0.51-4.01-0.8c0.14-0.2,0.29-0.42,0.58-0.84c-2.02,0-3.89,0-5.87-0.08c4.66-0.73,9.4-0.7,13.67,1.71
				c1.71,0.96,2.91,2.83,4.7,4.66c-0.86-0.14-1.3-0.25-1.75-0.28C52.51,7.16,52.06,7.21,51.61,7.35z"/>
			<path class="st3" d="M27.34,38.45c-2.68-1.3-3.69-3.96-4.82-6.52c-1.57-3.55-1.85-7.31-0.9-10.96c0.77-2.95,1.79-6,4.69-7.92
				c-0.95,1.73-2.27,3.37-3.04,5.23c-2.88,6.97-1.66,13.34,3.25,19.04C26.79,37.65,27.04,38,27.34,38.45z"/>
			<path class="st3" d="M59.5,16.82c-1.18-1.06-2.64-0.57-3.42,0.28c-0.56,0.61-0.53,2.18-0.19,3.12c2.17,6,0.63,11.32-2.73,16.36
				c-0.08,0.12-0.28,0.16-0.53,0.27c0.88-2.07,2-4.13,2.84-6.3c1.27-3.28,1.06-6.61-0.14-9.89c-0.24-0.66-0.66-1.39-0.55-2.02
				c0.14-0.83,0.59-1.69,1.14-2.35c0.41-0.49,1.18-0.69,2.14-1.21C58.4,15.48,58.94,16.09,59.5,16.82z"/>
			<path class="st3" d="M35.36,8.02c0.37-0.3,0.89-0.83,1.39-0.82c2.74,0.06,5.48,0.2,8.21,0.43c1.56,0.14,3.1,0.58,4.66,0.74
				c0.73,0.07,1.5-0.21,2.28-0.46c0.4,0.18,0.77,0.48,1.54,1.11c-1.59,0.09-2.75,0.15-4,0.22c0.22,0.36,0.45,0.74,0.95,1.58
				C45.49,7.97,40.64,7.12,35.36,8.02z"/>
			<path class="st3" d="M47.5,40.77c-0.76,0.51-1.59,1.17-2.54,1.51c-0.91,0.32-1.89,0.34-2.18,1.54c-0.04,0.17-0.63,0.21-1.2,0.38
				c0.31-0.42,0.46-0.61,0.81-1.08c-0.79,0.07-1.39,0.05-1.95,0.18c-3.83,0.88-11.22-1.64-13.04-4.63c1.85,0.98,3.62,2.28,5.59,3.13
				c4.31,1.86,8.62,1.17,12.86-0.47C46.35,41.13,46.86,40.96,47.5,40.77z"/>
			<path class="st3" d="M23.77,44.27c0.58,0.2,1.25,0.41,1.78,0.81c2.96,2.24,6.5,2.95,9.99,4.03
				C31.16,48.79,27.21,47.24,23.77,44.27z"/>
			<path class="st3" d="M56.6,40.79c0.58-1.19,1.34-2.39,1.92-3.66c0.88-1.93,1.63-3.91,2.44-5.86c0.12-0.29,0.28-0.55,0.53-0.87
				C61.03,34.32,59.43,37.8,56.6,40.79z"/>
			<path class="st3" d="M17.23,36.37c0.97,1.12,1.92,2.39,2.94,3.6c1.14,1.35,2.35,2.65,3.56,4.08c-0.92-0.64-2.05-1.24-2.79-2.16
				C19.58,40.19,18.46,38.3,17.23,36.37z"/>
			<path class="st3" d="M41.25,49.24c1-0.39,2.14-0.72,3.26-1.13c1.77-0.65,3.52-1.35,5.4-2.02C47.52,48.15,44.49,48.81,41.25,49.24
				z"/>
			<path class="st3" d="M28.52,11.12c1.37-2.03,3.52-2.81,5.97-3.1C32.6,9.1,30.62,10.11,28.52,11.12z"/>
			<path class="st3" d="M61.75,29.59c-0.13-2-0.19-4.1-0.15-6.31C61.74,25.29,61.79,27.39,61.75,29.59z"/>
			<path class="st3" d="M61.64,22.4c-0.63-1.46-1.24-3.06-1.83-4.78C60.44,19.08,61.05,20.68,61.64,22.4z"/>
			<path class="st3" d="M51.14,38.23c-0.64,1.34-1.71,2.27-3.41,2.55C48.75,39.93,49.89,39.09,51.14,38.23z"/>
			<path class="st3" d="M53.98,43.42c0.68-0.85,1.48-1.72,2.39-2.59C55.7,41.69,54.89,42.55,53.98,43.42z"/>
			<path class="st3" d="M36.68,49.33c1-0.11,2.13-0.17,3.35-0.14C39.02,49.31,37.91,49.35,36.68,49.33z"/>
			<path class="st3" d="M51.37,45.38c0.68-0.64,1.47-1.29,2.39-1.94C53.07,44.08,52.28,44.73,51.37,45.38z"/>
			<path class="st3" d="M52.41,36.88c-0.24,0.42-0.59,0.86-1.05,1.32C51.6,37.77,51.96,37.34,52.41,36.88z"/>
			<path class="st3" d="M50.38,46.03c0.15-0.21,0.4-0.42,0.76-0.63C50.99,45.61,50.74,45.82,50.38,46.03z"/>
			<path class="st3" d="M27.82,11.72c0.06-0.19,0.22-0.4,0.49-0.6C28.26,11.32,28.09,11.51,27.82,11.72z"/>
			<path class="st3" d="M26.84,12.69c0.05-0.19,0.2-0.4,0.45-0.62C27.24,12.26,27.09,12.46,26.84,12.69z"/>
			<path class="st3" d="M51.91,7.72c-0.06,0.02-0.15-0.04-0.28-0.17C51.69,7.52,51.78,7.58,51.91,7.72z"/>
			<path class="st3" d="M27.47,12.03c-0.05-0.09,0.01-0.17,0.17-0.27C27.67,11.82,27.61,11.92,27.47,12.03z"/>
			<path class="st3" d="M45.47,4.58c0.16,0.03,0.24,0.08,0.32,0.12c-0.08,0.05-0.18,0.14-0.24,0.12C45.48,4.8,45.44,4.67,45.47,4.58
				z"/>
		</g>
	</g>
</g>
</svg>
