<svg version="1.1" id="Layer_1" xmlns="http://www.w3.org/2000/svg" xmlns:xlink="http://www.w3.org/1999/xlink" x="0px" y="0px"
	 width="100%" viewBox="0 406 1024 213" enable-background="new 0 406 1024 213" xml:space="preserve">
<path fill="#FEFFFF" opacity="1.000000" stroke="none" 
	d="
M939.000000,1025.000000 
	C626.000000,1025.000000 313.500000,1025.000000 1.000000,1025.000000 
	C1.000000,683.666687 1.000000,342.333344 1.000000,1.000000 
	C342.333344,1.000000 683.666687,1.000000 1025.000000,1.000000 
	C1025.000000,342.333344 1025.000000,683.666687 1025.000000,1025.000000 
	C996.500000,1025.000000 968.000000,1025.000000 939.000000,1025.000000 
M216.480316,464.839355 
	C216.653625,464.561798 216.826935,464.284241 217.000610,464.000000 
	C217.000610,464.000000 217.006912,464.000793 217.618927,463.903992 
	C218.132935,463.316925 218.646927,462.729889 219.085236,462.045624 
	C219.085236,462.045624 219.099930,462.167938 219.810791,462.094666 
	C225.861740,459.026733 231.912689,455.958801 238.645889,452.897736 
	C239.084625,452.786255 239.523346,452.674774 240.787659,452.722229 
	C256.498169,449.906250 271.342896,452.481964 286.341431,461.214996 
	C284.796448,458.661926 284.088593,457.492157 283.423157,456.392517 
	C287.233032,456.181641 290.793365,455.984619 295.652985,455.715668 
	C293.316193,453.801758 292.183319,452.873901 290.994781,451.982178 
	C290.994781,451.982178 291.058929,451.968353 290.888306,451.477203 
	C290.599304,451.304108 290.310303,451.131012 290.014832,451.006775 
	C290.014832,451.006775 290.047150,450.969086 290.075439,450.237579 
	C291.450623,450.175171 292.832336,450.001465 294.199158,450.081665 
	C295.566345,450.161957 296.918671,450.496063 299.554749,450.928345 
	C294.072144,445.341370 290.408783,439.619049 285.180908,436.672485 
	C272.115417,429.308472 257.597198,429.196228 242.366730,431.118134 
	C241.924850,431.199951 241.482971,431.281738 240.237976,431.199341 
	C198.376419,436.577759 172.210724,475.432312 176.517776,513.313232 
	C177.494843,521.906616 181.925552,530.107361 184.727142,538.757324 
	C184.727142,538.757324 184.868927,538.988708 184.923172,539.732239 
	C188.664215,545.265320 192.110809,551.033447 196.264282,556.237366 
	C198.510040,559.051086 201.962967,560.901367 204.850067,563.043091 
	C204.850067,563.043091 204.822113,563.185059 204.999527,563.829163 
	C215.428177,572.609741 227.521683,577.347229 241.759460,578.861694 
	C242.518600,578.850525 243.277756,578.839355 244.767624,579.155945 
	C248.157440,579.045959 251.547272,578.935974 255.700333,578.920410 
	C256.458313,578.825317 257.216278,578.730164 258.794037,578.813904 
	C268.288086,577.420166 277.553070,575.401306 285.636292,569.073547 
	C285.636292,569.073547 285.976471,568.897766 286.610229,568.898438 
	C287.395386,568.257568 288.180542,567.616699 289.000977,567.000000 
	C289.000977,567.000000 288.978210,566.963623 289.663818,566.877197 
	C292.103271,564.914490 294.542725,562.951843 297.000000,561.000000 
	C297.000000,561.000000 296.990112,560.981628 297.661041,560.879028 
	C300.111450,558.256226 302.561859,555.633423 305.000000,553.000000 
	C305.000000,553.000000 305.010895,553.010681 305.617889,552.727173 
	C313.994965,543.733826 318.881622,533.094788 320.804443,520.311768 
	C320.816406,519.859375 320.828369,519.407043 321.334595,518.305664 
	C321.186951,511.882050 321.039307,505.458466 320.935669,498.358032 
	C320.854401,497.915405 320.773132,497.472778 320.814026,496.251984 
	C318.945496,491.366364 317.076965,486.480774 315.134277,481.096008 
	C314.847076,480.698364 314.559906,480.300720 314.111298,479.201324 
	C312.472900,477.328308 310.834534,475.455261 309.758301,474.224915 
	C306.802917,475.821075 304.456177,476.418976 303.209015,477.926544 
	C301.537689,479.946655 300.149994,482.574707 299.718079,485.124329 
	C299.394745,487.032806 300.671326,489.267181 301.412170,491.291809 
	C305.087616,501.336182 305.751312,511.515442 301.852539,521.546387 
	C299.280060,528.164978 295.867340,534.456909 292.948456,540.879456 
	C292.948456,540.879456 292.840546,540.830139 292.211273,541.010681 
	C291.130066,542.333008 290.048859,543.655334 289.000000,545.000000 
	C289.000000,545.000000 288.977722,544.967712 288.302216,545.106506 
	C284.806396,547.673340 281.310608,550.240173 277.887756,552.964661 
	C277.887756,552.964661 277.863281,552.792603 277.094055,552.842407 
	C275.534637,553.403015 273.962982,553.931885 272.417755,554.529236 
	C259.467682,559.535583 246.273300,561.649597 233.094864,555.961975 
	C227.080994,553.366577 221.658554,549.400696 216.002090,546.005066 
	C216.002090,546.005066 215.947113,546.033020 215.709015,545.404358 
	C214.902328,544.353882 214.145065,543.260864 213.281662,542.259277 
	C198.264557,524.839783 194.536011,505.358032 203.350571,484.025787 
	C205.705582,478.326416 209.727676,473.315918 213.434128,467.780334 
	C213.715103,467.578735 213.899094,467.310608 214.591965,466.858765 
	C215.056931,466.237549 215.521881,465.616364 216.000320,465.001221 
	C216.000320,465.001221 215.997635,464.987183 216.480316,464.839355 
M489.142914,508.595581 
	C492.451355,518.178833 495.673828,527.792786 499.091522,537.336914 
	C502.758606,547.577515 500.234467,545.186096 510.577148,545.727722 
	C515.381775,545.979370 517.229675,544.059082 518.570984,539.783813 
	C521.740356,529.681885 525.402954,519.734680 528.866089,509.724915 
	C532.935303,518.393311 535.997070,527.085083 538.921692,535.822876 
	C542.163208,545.507385 542.112122,545.353394 552.400757,545.563110 
	C556.026184,545.637024 557.752380,544.442017 558.847534,541.048767 
	C563.490906,526.661682 568.353516,512.345520 573.113220,497.995850 
	C574.290344,494.446930 575.381897,490.869629 576.662354,486.834076 
	C573.717407,486.834076 571.568970,486.828033 569.420532,486.835144 
	C560.261108,486.865509 560.287048,486.874084 557.810364,495.839081 
	C555.218872,505.219635 552.570740,514.584595 549.657043,524.993713 
	C548.801575,522.686096 548.314941,521.471436 547.898071,520.233398 
	C544.610596,510.470734 541.235840,500.735596 538.119141,490.918610 
	C537.172485,487.937012 535.797058,486.754700 532.529968,486.782562 
	C522.390015,486.869019 522.391724,486.722229 519.367920,496.186676 
	C517.951782,500.619049 516.508728,505.042816 515.101624,509.478058 
	C513.640564,514.083496 512.208130,518.697998 510.308350,524.759949 
	C509.218201,521.568848 508.593018,519.906067 508.079987,518.209290 
	C505.290375,508.983765 502.610748,499.723480 499.670532,490.546509 
	C499.215393,489.125946 497.691376,487.119324 496.521606,487.019196 
	C491.801239,486.615082 487.026001,486.851654 481.792664,486.851654 
	C484.360107,494.367096 486.659882,501.099030 489.142914,508.595581 
M830.419922,548.075562 
	C837.973511,527.935425 845.527161,507.795258 853.355164,486.923523 
	C848.477112,486.923523 844.508667,487.129547 840.573425,486.857147 
	C837.527039,486.646271 836.152222,487.782776 835.257690,490.641754 
	C832.379089,499.842590 829.252747,508.966064 826.205444,518.113892 
	C825.421448,520.467346 824.577026,522.800598 823.301941,526.458008 
	C818.726013,513.647217 814.730408,502.222687 810.496094,490.887329 
	C809.922668,489.352295 808.251465,487.282928 806.917664,487.147827 
	C802.336243,486.683868 797.678955,486.969666 792.408142,486.969666 
	C793.145142,489.238159 793.598450,490.956329 794.252075,492.594513 
	C800.409790,508.028381 806.622742,523.440247 812.776672,538.875610 
	C817.315125,550.259033 812.438171,556.617126 800.315247,555.217896 
	C800.027649,555.184692 799.706604,555.442017 799.125122,555.673950 
	C798.651245,558.635864 798.344299,561.792603 797.602539,564.843628 
	C796.858887,567.902283 798.382812,568.972656 800.899597,568.967590 
	C804.858826,568.959595 808.936707,569.157837 812.753235,568.314026 
	C823.080811,566.030518 826.850586,557.543335 830.419922,548.075562 
M439.647430,545.900452 
	C441.299530,546.101501 442.947083,546.356628 444.604401,546.495117 
	C461.103668,547.874512 475.511597,537.369202 477.964935,522.190613 
	C480.773499,504.814301 471.839264,490.621460 455.701996,486.824005 
	C437.654510,482.576996 421.614075,490.668304 416.670166,506.513000 
	C411.137543,524.244446 420.243317,540.355774 439.647430,545.900452 
M589.315979,495.826080 
	C580.532959,506.882233 579.337891,518.990479 585.818848,531.248108 
	C592.352234,543.605225 603.838135,547.343933 617.080017,546.184204 
	C629.790466,545.071106 639.009033,538.781311 643.288696,526.442627 
	C648.010925,512.828125 642.772339,497.608826 631.218018,490.464691 
	C618.553955,482.634277 600.527832,484.742096 589.315979,495.826080 
M654.197693,509.693878 
	C654.115479,513.184326 653.717590,516.701172 654.006897,520.160645 
	C655.135132,533.654785 665.481934,544.251404 679.008301,546.046326 
	C695.435120,548.226074 708.384338,541.567505 713.274109,528.338318 
	C713.852417,526.773743 713.973145,525.040039 714.345398,523.188721 
	C710.280823,523.188721 706.952881,523.336853 703.644653,523.145081 
	C700.624878,522.970093 698.559326,523.484314 696.726685,526.473816 
	C695.298279,528.804199 692.450867,530.805054 689.804321,531.755066 
	C678.206055,535.918579 668.582031,527.008667 669.816772,513.551392 
	C670.432739,506.838135 674.664307,501.525909 680.595337,500.020325 
	C687.092407,498.371002 693.329956,500.758514 697.217041,506.269226 
	C697.917358,507.261963 698.931396,508.700134 699.863892,508.750092 
	C704.592102,509.003418 709.341125,508.866730 714.121826,508.866730 
	C713.060120,496.874817 702.361816,487.346130 689.314392,486.051208 
	C671.669250,484.300049 658.962158,492.616211 654.197693,509.693878 
M339.819855,488.284760 
	C339.819855,492.211578 339.819855,496.138367 339.819855,500.616974 
	C343.696991,500.616974 347.248962,500.616974 351.159210,500.616974 
	C351.159210,515.744690 351.159210,530.317688 351.159210,544.970581 
	C356.497681,544.970581 361.438171,544.970581 366.803467,544.970581 
	C366.803467,530.117188 366.803467,515.528564 366.803467,500.342072 
	C371.613617,500.342072 376.016968,500.342072 380.342834,500.342072 
	C380.342834,495.639282 380.342834,491.555573 380.342834,487.043213 
	C375.535217,487.043213 371.101959,487.043213 366.718170,487.043213 
	C365.500977,472.983948 367.807068,470.639526 381.332825,472.293060 
	C381.555054,470.363251 381.816925,468.435303 381.989319,466.499390 
	C382.177490,464.385895 382.282837,462.265076 382.417450,460.250214 
	C374.444031,457.184448 365.810852,457.502502 359.968506,461.029327 
	C349.966003,467.067535 351.015381,477.163452 351.102631,486.809692 
	C347.182556,487.078644 343.749237,487.314178 339.819855,488.284760 
M764.717346,541.797180 
	C771.377808,546.872498 778.898621,546.990112 786.595093,545.312622 
	C787.759338,545.058838 789.416504,543.349792 789.442932,542.279175 
	C789.527283,538.865601 788.950195,535.435730 788.603394,531.744080 
	C786.086548,532.010376 783.971497,532.399902 781.852783,532.421021 
	C778.294006,532.456421 775.260681,530.897095 775.117310,527.177063 
	C774.780762,518.444458 775.009583,509.690155 775.009583,500.491364 
	C779.696777,500.491364 784.129639,500.491364 788.670410,500.491364 
	C788.670410,495.820190 788.670410,491.613556 788.670410,487.021973 
	C783.883057,487.021973 779.439819,487.021973 774.438477,487.021973 
	C774.438477,480.887939 774.438477,475.132568 774.438477,469.061462 
	C770.562683,469.061462 767.249817,469.205414 763.955383,469.020355 
	C760.766724,468.841248 759.427063,469.971039 759.582275,473.288605 
	C759.789978,477.728424 759.633606,482.185303 759.633606,487.303528 
	C755.978760,487.303528 752.034058,486.169708 749.988953,487.653717 
	C748.279663,488.894073 748.443054,493.191193 748.388306,496.145966 
	C748.226379,504.894531 755.699585,498.512665 759.158508,501.921661 
	C759.158508,508.931793 759.095032,516.710754 759.178894,524.488159 
	C759.244141,530.544922 759.890686,536.480347 764.717346,541.797180 
M404.635712,495.500427 
	C404.635712,483.453156 404.635712,471.405884 404.635712,459.372803 
	C398.824280,459.372803 394.054108,459.372803 389.040833,459.372803 
	C389.040833,488.051788 389.040833,516.448364 389.040833,545.043213 
	C394.185791,545.043213 399.094604,545.043213 404.639862,545.043213 
	C404.639862,528.694336 404.639862,512.597412 404.635712,495.500427 
M725.148926,515.499939 
	C725.148926,525.279602 725.148926,535.059265 725.148926,545.090454 
	C730.560608,545.090454 735.650269,545.090454 740.826050,545.090454 
	C740.826050,525.681702 740.826050,506.519806 740.826050,487.395813 
	C735.518799,487.395813 730.610657,487.395813 725.148682,487.395813 
	C725.148682,496.641144 725.148682,505.570526 725.148926,515.499939 
M269.151550,472.654907 
	C254.654434,487.745880 240.082047,502.766479 225.792389,518.051392 
	C224.548218,519.382202 225.165482,522.453247 224.918121,524.716003 
	C227.026505,524.702087 229.298874,525.176575 231.197769,524.538818 
	C233.149277,523.883423 234.945938,522.351257 236.449371,520.842896 
	C248.535095,508.717773 260.543152,496.515137 272.551392,484.312927 
	C273.941193,482.900665 275.101013,481.258270 276.519073,479.878387 
	C278.922516,477.539703 279.550659,474.945801 277.213165,472.425934 
	C274.980499,470.019073 272.268921,469.969147 269.151550,472.654907 
M252.672256,520.181763 
	C250.663971,522.606506 248.386871,524.866028 246.754593,527.521912 
	C245.865967,528.967773 246.072021,531.086426 245.784348,532.901672 
	C247.676376,533.095398 249.608536,533.608948 251.447266,533.378052 
	C252.829117,533.204651 254.390823,532.357178 255.359055,531.327148 
	C263.527679,522.637207 271.626648,513.880066 279.629700,505.037445 
	C281.627472,502.830109 281.502380,499.990143 278.805328,498.721222 
	C276.999603,497.871643 274.414673,498.441284 272.232910,498.754852 
	C271.456421,498.866455 270.821472,500.077972 270.154175,500.816559 
	C264.483398,507.093109 258.820099,513.376404 252.672256,520.181763 
M731.720093,478.917267 
	C738.956238,478.678589 742.924988,475.232819 742.498657,469.559143 
	C742.148132,464.894135 738.558350,461.545227 733.563232,461.223389 
	C728.476685,460.895630 724.370728,464.028168 723.522888,468.883392 
	C722.682312,473.696777 725.056152,476.888031 731.720093,478.917267 
z"/>
<path fill="#62BCF8" opacity="1.000000" stroke="none" 
	d="
M320.840332,518.954651 
	C320.828369,519.407043 320.816406,519.859375 320.378723,520.746094 
	C319.516235,522.026794 319.016754,522.847168 318.652802,523.723755 
	C316.169617,529.704834 313.876129,535.771118 311.194336,541.661072 
	C309.413605,545.571960 307.090912,549.236084 305.010864,553.010681 
	C305.010895,553.010681 305.000000,553.000000 304.634521,553.003296 
	C301.842743,555.664917 299.416443,558.323242 296.990112,560.981628 
	C296.990112,560.981628 297.000000,561.000000 296.626038,560.996338 
	C293.827454,562.983032 291.402832,564.973328 288.978210,566.963623 
	C288.978210,566.963623 289.000977,567.000000 288.637878,566.991455 
	C287.508698,567.621216 286.742584,568.259460 285.976471,568.897766 
	C285.976471,568.897766 285.636292,569.073547 285.055847,569.082397 
	C279.103027,571.161438 273.756104,573.301208 268.349091,575.276733 
	C264.937225,576.523193 261.435608,577.524048 257.974243,578.635071 
	C257.216278,578.730164 256.458313,578.825317 255.018707,578.616943 
	C250.903702,578.485046 247.470291,578.656677 244.036896,578.828247 
	C243.277756,578.839355 242.518600,578.850525 241.277008,578.423645 
	C230.245071,575.019287 219.400604,572.841248 210.357742,565.987366 
	C208.736099,564.758301 206.678467,564.104492 204.822113,563.185059 
	C204.822113,563.185059 204.850067,563.043091 204.776978,562.781189 
	C201.092285,558.476379 197.393326,554.507263 193.895111,550.368469 
	C190.771210,546.672607 187.868988,542.789307 184.868927,538.988708 
	C184.868927,538.988708 184.727142,538.757324 184.811905,538.202393 
	C184.495865,536.233459 184.062607,534.827759 183.699738,533.403992 
	C181.786789,525.898865 179.158432,518.487183 178.138504,510.861145 
	C175.807648,493.433258 181.635895,477.644745 191.185623,463.643738 
	C202.312439,447.330475 217.123077,435.665283 237.910904,433.878082 
	C239.018173,433.782898 240.000565,432.235077 241.041092,431.363525 
	C241.482971,431.281738 241.924850,431.199951 243.020111,431.406219 
	C249.406342,431.694305 255.139191,431.694305 261.314392,431.694305 
	C260.428528,432.977325 259.960815,433.654724 259.540894,434.262878 
	C263.797455,435.142242 267.770294,436.199829 271.812256,436.712585 
	C274.395477,437.040222 277.080872,436.562256 280.110626,436.428223 
	C278.815796,439.425873 282.313080,439.220978 284.643188,440.464813 
	C286.593323,441.505768 288.116760,443.346039 289.829132,444.832367 
	C289.609650,445.091980 289.390137,445.351562 289.170624,445.611176 
	C284.522308,444.582672 279.873993,443.554138 275.225677,442.525635 
	C275.118103,442.897430 275.010529,443.269226 274.902954,443.641022 
	C279.951019,446.083710 284.999084,448.526398 290.047150,450.969086 
	C290.047150,450.969086 290.014832,451.006775 290.118591,451.216125 
	C290.501190,451.606415 290.780060,451.787384 291.058929,451.968353 
	C291.058929,451.968353 290.994781,451.982178 290.924561,452.353638 
	C288.559875,453.096497 286.215637,453.962463 283.981323,453.737244 
	C279.199585,453.255341 274.503113,451.880554 269.720215,451.466797 
	C261.373016,450.744690 252.990189,450.332886 244.614212,450.137177 
	C243.083237,450.101379 241.513779,451.712433 239.962067,452.563293 
	C239.523346,452.674774 239.084625,452.786255 238.058624,452.640564 
	C230.230469,453.547485 223.640900,455.934479 219.099930,462.167938 
	C219.099930,462.167938 219.085236,462.045624 218.784363,462.080322 
	C217.991287,462.743591 217.499100,463.372192 217.006912,464.000793 
	C217.006912,464.000793 217.000610,464.000000 216.773712,464.097351 
	C216.262955,464.389038 216.079895,464.653198 215.997635,464.987183 
	C215.997635,464.987183 216.000320,465.001221 215.674042,465.033600 
	C214.893890,465.702637 214.440002,466.339264 213.986115,466.975922 
	C213.899094,467.310608 213.715103,467.578735 212.863281,467.917786 
	C203.795135,473.882477 200.652740,483.229034 198.306259,492.247894 
	C195.405334,503.397797 196.265091,514.909180 201.072739,525.761108 
	C204.548538,533.606873 207.629105,541.740967 215.947113,546.033020 
	C215.947113,546.033020 216.002090,546.005066 216.027954,546.373047 
	C221.568604,555.536926 244.162933,563.237976 255.883163,560.561401 
	C257.606323,560.167969 259.431030,560.219238 261.855652,560.008484 
	C260.771637,561.444092 260.323547,562.037476 259.364594,563.307434 
	C261.107849,562.788757 262.905518,562.673706 263.035004,562.147827 
	C263.937561,558.482422 266.931183,558.434814 269.706268,557.443054 
	C272.608582,556.405762 275.159027,554.383972 277.863281,552.792603 
	C277.863281,552.792603 277.887756,552.964661 278.242920,552.915833 
	C283.396606,551.992859 286.687042,549.137146 288.977722,544.967712 
	C288.977722,544.967712 289.000000,545.000000 289.334473,544.965454 
	C290.726135,543.564026 291.783325,542.197083 292.840515,540.830139 
	C292.840546,540.830139 292.948456,540.879456 293.235046,540.794556 
	C293.959534,540.470703 294.566467,540.344116 294.811035,539.976440 
	C305.068878,524.553589 309.787323,508.295044 303.149200,489.934357 
	C302.113525,487.069672 302.022003,482.254211 303.729950,480.395569 
	C306.113342,477.801910 310.585266,476.316589 314.272736,479.903076 
	C314.559906,480.300720 314.847076,480.698364 315.110474,481.762146 
	C316.955048,487.295563 318.823456,492.162842 320.691864,497.030151 
	C320.773132,497.472778 320.854401,497.915405 320.640533,499.003357 
	C320.510376,506.084015 320.675354,512.519348 320.840332,518.954651 
M271.048859,442.160522 
	C271.199982,442.412720 271.302582,442.796570 271.517456,442.875824 
	C271.691925,442.940125 272.001160,442.638855 272.250641,442.499695 
	C272.000824,442.360077 271.750977,442.220428 271.048859,442.160522 
z"/>
<path fill="#060606" opacity="1.000000" stroke="none" 
	d="
M489.051270,508.213257 
	C486.659882,501.099030 484.360107,494.367096 481.792664,486.851654 
	C487.026001,486.851654 491.801239,486.615082 496.521606,487.019196 
	C497.691376,487.119324 499.215393,489.125946 499.670532,490.546509 
	C502.610748,499.723480 505.290375,508.983765 508.079987,518.209290 
	C508.593018,519.906067 509.218201,521.568848 510.308350,524.759949 
	C512.208130,518.697998 513.640564,514.083496 515.101624,509.478058 
	C516.508728,505.042816 517.951782,500.619049 519.367920,496.186676 
	C522.391724,486.722229 522.390015,486.869019 532.529968,486.782562 
	C535.797058,486.754700 537.172485,487.937012 538.119141,490.918610 
	C541.235840,500.735596 544.610596,510.470734 547.898071,520.233398 
	C548.314941,521.471436 548.801575,522.686096 549.657043,524.993713 
	C552.570740,514.584595 555.218872,505.219635 557.810364,495.839081 
	C560.287048,486.874084 560.261108,486.865509 569.420532,486.835144 
	C571.568970,486.828033 573.717407,486.834076 576.662354,486.834076 
	C575.381897,490.869629 574.290344,494.446930 573.113220,497.995850 
	C568.353516,512.345520 563.490906,526.661682 558.847534,541.048767 
	C557.752380,544.442017 556.026184,545.637024 552.400757,545.563110 
	C542.112122,545.353394 542.163208,545.507385 538.921692,535.822876 
	C535.997070,527.085083 532.935303,518.393311 528.866089,509.724915 
	C525.402954,519.734680 521.740356,529.681885 518.570984,539.783813 
	C517.229675,544.059082 515.381775,545.979370 510.577148,545.727722 
	C500.234467,545.186096 502.758606,547.577515 499.091522,537.336914 
	C495.673828,527.792786 492.451355,518.178833 489.051270,508.213257 
z"/>
<path fill="#060606" opacity="1.000000" stroke="none" 
	d="
M830.277771,548.431702 
	C826.850586,557.543335 823.080811,566.030518 812.753235,568.314026 
	C808.936707,569.157837 804.858826,568.959595 800.899597,568.967590 
	C798.382812,568.972656 796.858887,567.902283 797.602539,564.843628 
	C798.344299,561.792603 798.651245,558.635864 799.125122,555.673950 
	C799.706604,555.442017 800.027649,555.184692 800.315247,555.217896 
	C812.438171,556.617126 817.315125,550.259033 812.776672,538.875610 
	C806.622742,523.440247 800.409790,508.028381 794.252075,492.594513 
	C793.598450,490.956329 793.145142,489.238159 792.408142,486.969666 
	C797.678955,486.969666 802.336243,486.683868 806.917664,487.147827 
	C808.251465,487.282928 809.922668,489.352295 810.496094,490.887329 
	C814.730408,502.222687 818.726013,513.647217 823.301941,526.458008 
	C824.577026,522.800598 825.421448,520.467346 826.205444,518.113892 
	C829.252747,508.966064 832.379089,499.842590 835.257690,490.641754 
	C836.152222,487.782776 837.527039,486.646271 840.573425,486.857147 
	C844.508667,487.129547 848.477112,486.923523 853.355164,486.923523 
	C845.527161,507.795258 837.973511,527.935425 830.277771,548.431702 
z"/>
<path fill="#060606" opacity="1.000000" stroke="none" 
	d="
M439.241730,545.816345 
	C420.243317,540.355774 411.137543,524.244446 416.670166,506.513000 
	C421.614075,490.668304 437.654510,482.576996 455.701996,486.824005 
	C471.839264,490.621460 480.773499,504.814301 477.964935,522.190613 
	C475.511597,537.369202 461.103668,547.874512 444.604401,546.495117 
	C442.947083,546.356628 441.299530,546.101501 439.241730,545.816345 
M455.523132,530.214722 
	C456.662659,529.255310 457.959137,528.430298 458.915100,527.313660 
	C463.640442,521.794312 463.908508,511.770416 459.587067,505.817780 
	C455.720795,500.492035 447.575378,498.147919 441.138611,500.508514 
	C434.326843,503.006622 430.299957,510.192963 431.176453,518.286987 
	C432.467194,530.206543 442.982880,535.690674 455.523132,530.214722 
z"/>
<path fill="#060606" opacity="1.000000" stroke="none" 
	d="
M589.558716,495.566864 
	C600.527832,484.742096 618.553955,482.634277 631.218018,490.464691 
	C642.772339,497.608826 648.010925,512.828125 643.288696,526.442627 
	C639.009033,538.781311 629.790466,545.071106 617.080017,546.184204 
	C603.838135,547.343933 592.352234,543.605225 585.818848,531.248108 
	C579.337891,518.990479 580.532959,506.882233 589.558716,495.566864 
M620.228394,531.020691 
	C628.986572,525.728271 631.712585,515.357178 626.560181,506.931915 
	C622.221375,499.837036 612.342468,497.578857 605.026550,502.009644 
	C598.192200,506.148773 595.733521,516.095215 599.533508,524.231567 
	C602.929199,531.502441 610.370972,534.128235 620.228394,531.020691 
z"/>
<path fill="#060606" opacity="1.000000" stroke="none" 
	d="
M654.300659,509.296234 
	C658.962158,492.616211 671.669250,484.300049 689.314392,486.051208 
	C702.361816,487.346130 713.060120,496.874817 714.121826,508.866730 
	C709.341125,508.866730 704.592102,509.003418 699.863892,508.750092 
	C698.931396,508.700134 697.917358,507.261963 697.217041,506.269226 
	C693.329956,500.758514 687.092407,498.371002 680.595337,500.020325 
	C674.664307,501.525909 670.432739,506.838135 669.816772,513.551392 
	C668.582031,527.008667 678.206055,535.918579 689.804321,531.755066 
	C692.450867,530.805054 695.298279,528.804199 696.726685,526.473816 
	C698.559326,523.484314 700.624878,522.970093 703.644653,523.145081 
	C706.952881,523.336853 710.280823,523.188721 714.345398,523.188721 
	C713.973145,525.040039 713.852417,526.773743 713.274109,528.338318 
	C708.384338,541.567505 695.435120,548.226074 679.008301,546.046326 
	C665.481934,544.251404 655.135132,533.654785 654.006897,520.160645 
	C653.717590,516.701172 654.115479,513.184326 654.300659,509.296234 
z"/>
<path fill="#080808" opacity="1.000000" stroke="none" 
	d="
M340.067871,487.917236 
	C343.749237,487.314178 347.182556,487.078644 351.102631,486.809692 
	C351.015381,477.163452 349.966003,467.067535 359.968506,461.029327 
	C365.810852,457.502502 374.444031,457.184448 382.417450,460.250214 
	C382.282837,462.265076 382.177490,464.385895 381.989319,466.499390 
	C381.816925,468.435303 381.555054,470.363251 381.332825,472.293060 
	C367.807068,470.639526 365.500977,472.983948 366.718170,487.043213 
	C371.101959,487.043213 375.535217,487.043213 380.342834,487.043213 
	C380.342834,491.555573 380.342834,495.639282 380.342834,500.342072 
	C376.016968,500.342072 371.613617,500.342072 366.803467,500.342072 
	C366.803467,515.528564 366.803467,530.117188 366.803467,544.970581 
	C361.438171,544.970581 356.497681,544.970581 351.159210,544.970581 
	C351.159210,530.317688 351.159210,515.744690 351.159210,500.616974 
	C347.248962,500.616974 343.696991,500.616974 339.819855,500.616974 
	C339.819855,496.138367 339.819855,492.211578 340.067871,487.917236 
z"/>
<path fill="#080808" opacity="1.000000" stroke="none" 
	d="
M764.458618,541.545288 
	C759.890686,536.480347 759.244141,530.544922 759.178894,524.488159 
	C759.095032,516.710754 759.158508,508.931793 759.158508,501.921661 
	C755.699585,498.512665 748.226379,504.894531 748.388306,496.145966 
	C748.443054,493.191193 748.279663,488.894073 749.988953,487.653717 
	C752.034058,486.169708 755.978760,487.303528 759.633606,487.303528 
	C759.633606,482.185303 759.789978,477.728424 759.582275,473.288605 
	C759.427063,469.971039 760.766724,468.841248 763.955383,469.020355 
	C767.249817,469.205414 770.562683,469.061462 774.438477,469.061462 
	C774.438477,475.132568 774.438477,480.887939 774.438477,487.021973 
	C779.439819,487.021973 783.883057,487.021973 788.670410,487.021973 
	C788.670410,491.613556 788.670410,495.820190 788.670410,500.491364 
	C784.129639,500.491364 779.696777,500.491364 775.009583,500.491364 
	C775.009583,509.690155 774.780762,518.444458 775.117310,527.177063 
	C775.260681,530.897095 778.294006,532.456421 781.852783,532.421021 
	C783.971497,532.399902 786.086548,532.010376 788.603394,531.744080 
	C788.950195,535.435730 789.527283,538.865601 789.442932,542.279175 
	C789.416504,543.349792 787.759338,545.058838 786.595093,545.312622 
	C778.898621,546.990112 771.377808,546.872498 764.458618,541.545288 
z"/>
<path fill="#080808" opacity="1.000000" stroke="none" 
	d="
M404.637787,496.000427 
	C404.639862,512.597412 404.639862,528.694336 404.639862,545.043213 
	C399.094604,545.043213 394.185791,545.043213 389.040833,545.043213 
	C389.040833,516.448364 389.040833,488.051788 389.040833,459.372803 
	C394.054108,459.372803 398.824280,459.372803 404.635712,459.372803 
	C404.635712,471.405884 404.635712,483.453156 404.637787,496.000427 
z"/>
<path fill="#060606" opacity="1.000000" stroke="none" 
	d="
M725.148804,514.999878 
	C725.148682,505.570526 725.148682,496.641144 725.148682,487.395813 
	C730.610657,487.395813 735.518799,487.395813 740.826050,487.395813 
	C740.826050,506.519806 740.826050,525.681702 740.826050,545.090454 
	C735.650269,545.090454 730.560608,545.090454 725.148926,545.090454 
	C725.148926,535.059265 725.148926,525.279602 725.148804,514.999878 
z"/>
<path fill="#62BCF8" opacity="1.000000" stroke="none" 
	d="
M269.417664,472.419891 
	C272.268921,469.969147 274.980499,470.019073 277.213165,472.425934 
	C279.550659,474.945801 278.922516,477.539703 276.519073,479.878387 
	C275.101013,481.258270 273.941193,482.900665 272.551392,484.312927 
	C260.543152,496.515137 248.535095,508.717773 236.449371,520.842896 
	C234.945938,522.351257 233.149277,523.883423 231.197769,524.538818 
	C229.298874,525.176575 227.026505,524.702087 224.918121,524.716003 
	C225.165482,522.453247 224.548218,519.382202 225.792389,518.051392 
	C240.082047,502.766479 254.654434,487.745880 269.417664,472.419891 
z"/>
<path fill="#62BCF8" opacity="1.000000" stroke="none" 
	d="
M252.913391,519.919678 
	C258.820099,513.376404 264.483398,507.093109 270.154175,500.816559 
	C270.821472,500.077972 271.456421,498.866455 272.232910,498.754852 
	C274.414673,498.441284 276.999603,497.871643 278.805328,498.721222 
	C281.502380,499.990143 281.627472,502.830109 279.629700,505.037445 
	C271.626648,513.880066 263.527679,522.637207 255.359055,531.327148 
	C254.390823,532.357178 252.829117,533.204651 251.447266,533.378052 
	C249.608536,533.608948 247.676376,533.095398 245.784348,532.901672 
	C246.072021,531.086426 245.865967,528.967773 246.754593,527.521912 
	C248.386871,524.866028 250.663971,522.606506 252.913391,519.919678 
z"/>
<path fill="#080808" opacity="1.000000" stroke="none" 
	d="
M731.317993,478.869812 
	C725.056152,476.888031 722.682312,473.696777 723.522888,468.883392 
	C724.370728,464.028168 728.476685,460.895630 733.563232,461.223389 
	C738.558350,461.545227 742.148132,464.894135 742.498657,469.559143 
	C742.924988,475.232819 738.956238,478.678589 731.317993,478.869812 
z"/>
<path fill="#78C1EF" opacity="1.000000" stroke="none" 
	d="
M240.639526,431.281433 
	C240.000565,432.235077 239.018173,433.782898 237.910904,433.878082 
	C217.123077,435.665283 202.312439,447.330475 191.185623,463.643738 
	C181.635895,477.644745 175.807648,493.433258 178.138504,510.861145 
	C179.158432,518.487183 181.786789,525.898865 183.699738,533.403992 
	C184.062607,534.827759 184.495865,536.233459 184.831635,538.068176 
	C181.925552,530.107361 177.494843,521.906616 176.517776,513.313232 
	C172.210724,475.432312 198.376419,436.577759 240.639526,431.281433 
z"/>
<path fill="#78C1EF" opacity="1.000000" stroke="none" 
	d="
M290.061279,450.603333 
	C284.999084,448.526398 279.951019,446.083710 274.902954,443.641022 
	C275.010529,443.269226 275.118103,442.897430 275.225677,442.525635 
	C279.873993,443.554138 284.522308,444.582672 289.170624,445.611176 
	C289.390137,445.351562 289.609650,445.091980 289.829132,444.832367 
	C288.116760,443.346039 286.593323,441.505768 284.643188,440.464813 
	C282.313080,439.220978 278.815796,439.425873 280.110626,436.428223 
	C277.080872,436.562256 274.395477,437.040222 271.812256,436.712585 
	C267.770294,436.199829 263.797455,435.142242 259.540894,434.262878 
	C259.960815,433.654724 260.428528,432.977325 261.314392,431.694305 
	C255.139191,431.694305 249.406342,431.694305 243.357269,431.438904 
	C257.597198,429.196228 272.115417,429.308472 285.180908,436.672485 
	C290.408783,439.619049 294.072144,445.341370 299.554749,450.928345 
	C296.918671,450.496063 295.566345,450.161957 294.199158,450.081665 
	C292.832336,450.001465 291.450623,450.175171 290.061279,450.603333 
z"/>
<path fill="#78C1EF" opacity="1.000000" stroke="none" 
	d="
M215.828064,545.718689 
	C207.629105,541.740967 204.548538,533.606873 201.072739,525.761108 
	C196.265091,514.909180 195.405334,503.397797 198.306259,492.247894 
	C200.652740,483.229034 203.795135,473.882477 212.638412,468.022186 
	C209.727676,473.315918 205.705582,478.326416 203.350571,484.025787 
	C194.536011,505.358032 198.264557,524.839783 213.281662,542.259277 
	C214.145065,543.260864 214.902328,544.353882 215.828064,545.718689 
z"/>
<path fill="#78C1EF" opacity="1.000000" stroke="none" 
	d="
M314.192017,479.552185 
	C310.585266,476.316589 306.113342,477.801910 303.729950,480.395569 
	C302.022003,482.254211 302.113525,487.069672 303.149200,489.934357 
	C309.787323,508.295044 305.068878,524.553589 294.811035,539.976440 
	C294.566467,540.344116 293.959534,540.470703 293.176239,540.802429 
	C295.867340,534.456909 299.280060,528.164978 301.852539,521.546387 
	C305.751312,511.515442 305.087616,501.336182 301.412170,491.291809 
	C300.671326,489.267181 299.394745,487.032806 299.718079,485.124329 
	C300.149994,482.574707 301.537689,479.946655 303.209015,477.926544 
	C304.456177,476.418976 306.802917,475.821075 309.758301,474.224915 
	C310.834534,475.455261 312.472900,477.328308 314.192017,479.552185 
z"/>
<path fill="#78C1EF" opacity="1.000000" stroke="none" 
	d="
M240.374878,452.642761 
	C241.513779,451.712433 243.083237,450.101379 244.614212,450.137177 
	C252.990189,450.332886 261.373016,450.744690 269.720215,451.466797 
	C274.503113,451.880554 279.199585,453.255341 283.981323,453.737244 
	C286.215637,453.962463 288.559875,453.096497 290.952362,452.335571 
	C292.183319,452.873901 293.316193,453.801758 295.652985,455.715668 
	C290.793365,455.984619 287.233032,456.181641 283.423157,456.392517 
	C284.088593,457.492157 284.796448,458.661926 286.341431,461.214996 
	C271.342896,452.481964 256.498169,449.906250 240.374878,452.642761 
z"/>
<path fill="#78C1EF" opacity="1.000000" stroke="none" 
	d="
M277.478668,552.817505 
	C275.159027,554.383972 272.608582,556.405762 269.706268,557.443054 
	C266.931183,558.434814 263.937561,558.482422 263.035004,562.147827 
	C262.905518,562.673706 261.107849,562.788757 259.364594,563.307434 
	C260.323547,562.037476 260.771637,561.444092 261.855652,560.008484 
	C259.431030,560.219238 257.606323,560.167969 255.883163,560.561401 
	C244.162933,563.237976 221.568604,555.536926 216.010834,546.398682 
	C221.658554,549.400696 227.080994,553.366577 233.094864,555.961975 
	C246.273300,561.649597 259.467682,559.535583 272.417755,554.529236 
	C273.962982,553.931885 275.534637,553.403015 277.478668,552.817505 
z"/>
<path fill="#78C1EF" opacity="1.000000" stroke="none" 
	d="
M204.910828,563.507080 
	C206.678467,564.104492 208.736099,564.758301 210.357742,565.987366 
	C219.400604,572.841248 230.245071,575.019287 240.909302,578.324463 
	C227.521683,577.347229 215.428177,572.609741 204.910828,563.507080 
z"/>
<path fill="#78C1EF" opacity="1.000000" stroke="none" 
	d="
M305.314362,552.868896 
	C307.090912,549.236084 309.413605,545.571960 311.194336,541.661072 
	C313.876129,535.771118 316.169617,529.704834 318.652802,523.723755 
	C319.016754,522.847168 319.516235,522.026794 320.274689,521.070251 
	C318.881622,533.094788 313.994965,543.733826 305.314362,552.868896 
z"/>
<path fill="#78C1EF" opacity="1.000000" stroke="none" 
	d="
M184.896057,539.360474 
	C187.868988,542.789307 190.771210,546.672607 193.895111,550.368469 
	C197.393326,554.507263 201.092285,558.476379 204.787598,562.852783 
	C201.962967,560.901367 198.510040,559.051086 196.264282,556.237366 
	C192.110809,551.033447 188.664215,545.265320 184.896057,539.360474 
z"/>
<path fill="#78C1EF" opacity="1.000000" stroke="none" 
	d="
M258.384155,578.724487 
	C261.435608,577.524048 264.937225,576.523193 268.349091,575.276733 
	C273.756104,573.301208 279.103027,571.161438 284.865723,569.105103 
	C277.553070,575.401306 268.288086,577.420166 258.384155,578.724487 
z"/>
<path fill="#78C1EF" opacity="1.000000" stroke="none" 
	d="
M219.455353,462.131287 
	C223.640900,455.934479 230.230469,453.547485 237.717484,452.637115 
	C231.912689,455.958801 225.861740,459.026733 219.455353,462.131287 
z"/>
<path fill="#78C1EF" opacity="1.000000" stroke="none" 
	d="
M321.087463,518.630127 
	C320.675354,512.519348 320.510376,506.084015 320.618530,499.341797 
	C321.039307,505.458466 321.186951,511.882050 321.087463,518.630127 
z"/>
<path fill="#78C1EF" opacity="1.000000" stroke="none" 
	d="
M320.752930,496.641052 
	C318.823456,492.162842 316.955048,487.295563 315.147552,482.011719 
	C317.076965,486.480774 318.945496,491.366364 320.752930,496.641052 
z"/>
<path fill="#78C1EF" opacity="1.000000" stroke="none" 
	d="
M288.639954,545.037109 
	C286.687042,549.137146 283.396606,551.992859 278.206451,552.837036 
	C281.310608,550.240173 284.806396,547.673340 288.639954,545.037109 
z"/>
<path fill="#78C1EF" opacity="1.000000" stroke="none" 
	d="
M297.325562,560.930298 
	C299.416443,558.323242 301.842743,555.664917 304.640686,553.008545 
	C302.561859,555.633423 300.111450,558.256226 297.325562,560.930298 
z"/>
<path fill="#78C1EF" opacity="1.000000" stroke="none" 
	d="
M244.402252,578.992126 
	C247.470291,578.656677 250.903702,578.485046 254.637085,578.569702 
	C251.547272,578.935974 248.157440,579.045959 244.402252,578.992126 
z"/>
<path fill="#78C1EF" opacity="1.000000" stroke="none" 
	d="
M289.321045,566.920410 
	C291.402832,564.973328 293.827454,562.983032 296.617126,560.990967 
	C294.542725,562.951843 292.103271,564.914490 289.321045,566.920410 
z"/>
<path fill="#78C1EF" opacity="1.000000" stroke="none" 
	d="
M292.525879,540.920410 
	C291.783325,542.197083 290.726135,543.564026 289.318298,544.954346 
	C290.048859,543.655334 291.130066,542.333008 292.525879,540.920410 
z"/>
<path fill="#78C1EF" opacity="1.000000" stroke="none" 
	d="
M286.293335,568.898071 
	C286.742584,568.259460 287.508698,567.621216 288.620239,566.979370 
	C288.180542,567.616699 287.395386,568.257568 286.293335,568.898071 
z"/>
<path fill="#78C1EF" opacity="1.000000" stroke="none" 
	d="
M217.312927,463.952393 
	C217.499100,463.372192 217.991287,462.743591 218.822205,462.128906 
	C218.646927,462.729889 218.132935,463.316925 217.312927,463.952393 
z"/>
<path fill="#78C1EF" opacity="1.000000" stroke="none" 
	d="
M214.289032,466.917358 
	C214.440002,466.339264 214.893890,465.702637 215.667313,465.030579 
	C215.521881,465.616364 215.056931,466.237549 214.289032,466.917358 
z"/>
<path fill="#78C1EF" opacity="1.000000" stroke="none" 
	d="
M290.973633,451.722778 
	C290.780060,451.787384 290.501190,451.606415 290.121826,451.191681 
	C290.310303,451.131012 290.599304,451.304108 290.973633,451.722778 
z"/>
<path fill="#78C1EF" opacity="1.000000" stroke="none" 
	d="
M216.238983,464.913269 
	C216.079895,464.653198 216.262955,464.389038 216.773514,464.100708 
	C216.826935,464.284241 216.653625,464.561798 216.238983,464.913269 
z"/>
<path fill="#78C1EF" opacity="1.000000" stroke="none" 
	d="
M271.275024,442.120667 
	C271.750977,442.220428 272.000824,442.360077 272.250641,442.499695 
	C272.001160,442.638855 271.691925,442.940125 271.517456,442.875824 
	C271.302582,442.796570 271.199982,442.412720 271.275024,442.120667 
z"/>
<path fill="#F9F9F9" opacity="1.000000" stroke="none" 
	d="
M455.222534,530.442627 
	C442.982880,535.690674 432.467194,530.206543 431.176453,518.286987 
	C430.299957,510.192963 434.326843,503.006622 441.138611,500.508514 
	C447.575378,498.147919 455.720795,500.492035 459.587067,505.817780 
	C463.908508,511.770416 463.640442,521.794312 458.915100,527.313660 
	C457.959137,528.430298 456.662659,529.255310 455.222534,530.442627 
z"/>
<path fill="#F9F9F9" opacity="1.000000" stroke="none" 
	d="
M619.867554,531.149902 
	C610.370972,534.128235 602.929199,531.502441 599.533508,524.231567 
	C595.733521,516.095215 598.192200,506.148773 605.026550,502.009644 
	C612.342468,497.578857 622.221375,499.837036 626.560181,506.931915 
	C631.712585,515.357178 628.986572,525.728271 619.867554,531.149902 
z"/>
</svg>